<?xml version="1.0" standalone="no"?>
<!DOCTYPE svg PUBLIC "-//W3C//DTD SVG 20010904//EN"
 "http://www.w3.org/TR/2001/REC-SVG-20010904/DTD/svg10.dtd">
<svg version="1.0" xmlns="http://www.w3.org/2000/svg"
 width="1000.000000pt" height="1000.000000pt" viewBox="0 0 1000.000000 1000.000000"
 preserveAspectRatio="xMidYMid meet">
<metadata>
Created by potrace 1.11, written by Peter Selinger 2001-2013
</metadata>
<g transform="translate(0.000000,1000.000000) scale(0.100000,-0.100000)"
fill="#000000" stroke="none">
<path d="M565 9984 c-38 -8 -112 -36 -164 -60 -78 -38 -108 -60 -181 -132 -96
-96 -146 -176 -189 -300 l-26 -77 0 -4415 0 -4415 26 -77 c41 -120 94 -204
183 -294 90 -89 174 -142 294 -183 l77 -26 4415 0 4415 0 77 26 c124 43 204
93 300 189 72 73 94 103 131 181 85 174 77 -280 77 4599 0 4881 8 4425 -77
4600 -39 80 -59 108 -137 186 -78 78 -106 98 -186 137 -176 85 282 77 -4607
76 -3797 -1 -4367 -3 -4428 -15z m1598 -4071 c3 -2028 3 -2038 24 -2128 86
-371 304 -652 631 -815 368 -184 821 -151 1166 83 84 56 209 179 275 267 92
124 155 255 203 425 l23 80 5 1560 5 1560 345 0 345 0 3 -1490 c3 -1544 2
-1611 -38 -1804 -143 -685 -679 -1250 -1350 -1421 -213 -54 -469 -74 -670 -51
-855 98 -1524 749 -1645 1602 -12 89 -15 399 -15 2137 l0 2032 345 0 345 0 3
-2037z m4082 2009 c588 -96 1069 -314 1494 -678 548 -469 892 -1123 976 -1854
21 -180 16 -579 -9 -733 -83 -514 -275 -952 -597 -1358 -105 -134 -345 -371
-479 -475 -478 -372 -1010 -585 -1609 -644 -57 -5 -139 -10 -182 -10 l-79 0 0
338 0 339 113 7 c939 56 1768 677 2066 1549 172 501 145 1081 -73 1580 -298
685 -929 1176 -1671 1301 -196 33 -347 36 -2001 36 l-1654 0 0 315 0 316 1783
-4 1782 -3 140 -22z"/>
</g>
</svg>
