<svg xmlns="http://www.w3.org/2000/svg" viewBox="0 0 276.01 50.4"><defs><style>.cls-1{fill:#000;}</style></defs><title>logo</title><g id="Layer_2" data-name="Layer 2"><g id="Layer_1-2" data-name="Layer 1"><path class="cls-1" d="M35.21.7h7.07V28.59a33.14,33.14,0,0,1-.83,8.55,18.52,18.52,0,0,1-2,4.8,15.37,15.37,0,0,1-3,3.43q-5.85,5-15.27,5-9.6,0-15.4-5a16.27,16.27,0,0,1-3-3.47,18,18,0,0,1-2-4.69A34.71,34.71,0,0,1,0,28.52V.7H7.07V28.59c0,4.62.53,7.84,1.58,9.64a11.25,11.25,0,0,0,4.82,4.34,16.73,16.73,0,0,0,7.63,1.64,15.42,15.42,0,0,0,10.2-3.27,10.09,10.09,0,0,0,3-4.15q.91-2.4.92-8.2Z"/><path class="cls-1" d="M240.8,50h-7.07V22.09a33.14,33.14,0,0,1,.83-8.55,18.52,18.52,0,0,1,2-4.8,15.37,15.37,0,0,1,3-3.43q5.84-5,15.26-5,9.61,0,15.41,5a16,16,0,0,1,3,3.46,18,18,0,0,1,2,4.7,35.1,35.1,0,0,1,.79,8.72V50h-7.07V22.09q0-6.93-1.59-9.64a11.29,11.29,0,0,0-4.81-4.34,16.74,16.74,0,0,0-7.64-1.64,15.45,15.45,0,0,0-10.2,3.27,10.07,10.07,0,0,0-3,4.15q-.91,2.4-.92,8.2Z"/><path class="cls-1" d="M59,49.77V.7H75.52q10,0,15.87,3a22.7,22.7,0,0,1,9.28,8.85,24.55,24.55,0,0,1,3.45,12.73,24.09,24.09,0,0,1-1.9,9.42A24.32,24.32,0,0,1,88.47,47.94a25.76,25.76,0,0,1-5.1,1.46,69.57,69.57,0,0,1-8.87.37ZM74.78,7H66V43.51h9a36.07,36.07,0,0,0,8.19-.72A19.48,19.48,0,0,0,88.06,41a16.75,16.75,0,0,0,3.57-2.73A18.21,18.21,0,0,0,96.84,24.9,16.9,16.9,0,0,0,91.49,12,17.14,17.14,0,0,0,87,8.93a19.26,19.26,0,0,0-4.83-1.58A49,49,0,0,0,74.78,7Z"/><path class="cls-1" d="M143.76,0q11.38,0,19,7.21a23.91,23.91,0,0,1,7.57,18.08,23.56,23.56,0,0,1-7.64,18Q155,50.41,143.37,50.4q-11.1,0-18.51-7.12a23.75,23.75,0,0,1-7.39-17.85,24.27,24.27,0,0,1,7.45-18.22Q132.36,0,143.76,0ZM144,6.68A19,19,0,0,0,130.18,12a18,18,0,0,0-5.43,13.47,17.62,17.62,0,0,0,5.44,13.22,20.22,20.22,0,0,0,27.36-.1,18,18,0,0,0,5.5-13.4A17.59,17.59,0,0,0,157.55,12,18.69,18.69,0,0,0,144,6.68Z"/><path class="cls-1" d="M183,49.84V.7h12.31q7.46,0,11.83,3.7a12.38,12.38,0,0,1,4.38,10,12.82,12.82,0,0,1-2.15,7.43,12.82,12.82,0,0,1-6.15,4.67,22,22,0,0,1,4.61,4.22A86.09,86.09,0,0,1,214.19,40q2.56,4.18,4.11,6.3l2.61,3.52h-8.38l-2.14-3.24q-.1-.18-.42-.6l-1.37-1.93-2.18-3.59-2.35-3.84a38.33,38.33,0,0,0-4-4.82,15.32,15.32,0,0,0-3.28-2.58,11.13,11.13,0,0,0-4.91-.79h-1.83V49.84Zm9.14-43.16h-2.11V22.19h2.67c3.57,0,6-.3,7.34-.91a6.9,6.9,0,0,0,3.09-2.76,8,8,0,0,0,1.11-4.21,7.54,7.54,0,0,0-1.23-4.2,6.57,6.57,0,0,0-3.47-2.65A24.71,24.71,0,0,0,192.17,6.68Z"/><rect class="cls-1" x="237.8" y="22.09" width="31.99" height="6.93"/></g></g></svg>