<svg xmlns="http://www.w3.org/2000/svg" viewBox="0 0 82.17 22.54"><defs><style>.cls-1{fill:#fff;}</style></defs><title>Udora Logo</title><g id="Layer_2" data-name="Layer 2"><g id="Foreground_Layer" data-name="Foreground Layer"><path class="cls-1" d="M33.24,4.19A9.68,9.68,0,0,1,40.34,1a9.3,9.3,0,0,1,7.1,3.19,10.17,10.17,0,0,1,2.84,7.36,10.78,10.78,0,0,1-2.84,7.36,9.68,9.68,0,0,1-7.1,3.19,9.3,9.3,0,0,1-7.1-3.19,10.17,10.17,0,0,1-2.84-7.36A11.27,11.27,0,0,1,33.24,4.19Zm12.31,2a6.84,6.84,0,0,0-5.21-2.21,6,6,0,0,0-5,2.21,7.34,7.34,0,0,0-2.13,5.39,7.34,7.34,0,0,0,2.13,5.39,6.7,6.7,0,0,0,5,2.21,7.21,7.21,0,0,0,5.21-2.21,8.43,8.43,0,0,0,2.13-5.39A7.75,7.75,0,0,0,45.54,6.15Z"/><path class="cls-1" d="M55.69,11.42H59A3.44,3.44,0,0,0,62.55,7.7,3.57,3.57,0,0,0,59,4H54.5V21.84H51.66V1H59c4.26,0,6.39,3.23,6.39,6.7a6.27,6.27,0,0,1-5.21,6.45l6.39,7.94H62.79l-7.34-9.18V11.42Z"/><path class="cls-1" d="M74.93,1c-3.27,0-7.24,2.23-7.24,6.45V22.09h2.89v-9l8.68.12v8.89h2.89V7.45C82.17,3.23,78.43,1,74.93,1ZM70.59,7.45C70.59,5.22,72.87,4,74.93,4s4.34,1.24,4.34,3.47V11.2l-8.68-.12Z"/><path class="cls-1" d="M7.37,22.54A7.34,7.34,0,0,1,0,15.18V0H2.6V15.18a4.77,4.77,0,0,0,9.54,0V4.27h2.6V15.18A7.34,7.34,0,0,1,7.37,22.54Z"/><path class="cls-1" d="M17.34,22.54V19.85c4.34,0,9-3.69,9-8.64s-4.2-8.64-9.23-8.64H4.34V0H17.12c6.53,0,12,4.83,12,11.27S23.41,22.54,17.34,22.54Z"/></g></g></svg>