<svg xmlns="http://www.w3.org/2000/svg" viewBox="0 0 30 34" enable-background="new 0 0 30 34"><g><path fill="#8360A8" d="M30 22.3c0 1.1-.7 2.5-1.7 3.1l-11.7 7.8c-.9.6-2.4.6-3.3 0l-11.6-7.7c-.9-.6-1.7-2-1.7-3.1v-11c0-1.1.7-2.5 1.7-3.1l11.7-7.8c.9-.6 2.4-.6 3.3 0l11.7 7.8c.9.6 1.7 2 1.7 3.1v10.9z"/><path fill="#fff" d="M15 15.5c4.4 0 8-3.6 8-8 0-1.2-.3-2.3-.7-3.3l-2.1-1.4c1.1 1.2 1.8 2.9 1.8 4.7 0 3.9-3.1 7-7 7s-7-3.1-7-7c0-1.8.7-3.5 1.8-4.7l-2.1 1.4c-.4 1-.7 2.1-.7 3.3 0 4.4 3.6 8 8 8z"/><g><path fill="#fff" d="M15 27.3c-.7 0-1.3-.1-1.8-.3-.4-.2-.8-.5-1.2-1l-.3-.1-2.4 1.1h-.1c-.2 0-.4-.1-.5-.3-.1-.2-.2-.5-.1-.7l2.5-7v-2.6c0-5.2 2.5-10.1 4.1-10.1s4.1 4.9 4.1 10.1v2.6l2.5 7c.1.2 0 .5-.1.7-.1.2-.3.3-.5.3h-.2l-2.4-1-.6.1c-.3.5-.7.9-1.2 1-.5.1-1.1.2-1.8.2z"/><path fill="#8360A8" d="M15 6.8c1 0 3.6 4.3 3.6 9.6 0 .7 0 1.7-.1 2.7l2.5 7.1c0 .1 0 .3-.1.3l-2.5-1.1-.6.2c-.3.5-.6.8-1 .9-.4.2-1 .2-1.6.2-.6 0-1.2-.1-1.6-.2-.4-.1-.7-.5-1-.9l-.6-.3-2.5 1.1c-.5.1-.5-.1-.5-.2l2.5-7.1v-2.7c-.1-5.3 2.5-9.6 3.5-9.6m0-1c-2.3 0-4.6 6.1-4.6 10.6v2.5l-2.4 6.9c-.1.5 0 .9.2 1.2.2.3.6.5.9.5h.2l.2-.1 2.2-.9c.4.5.8.9 1.3 1.1.5.2 1.2.3 1.9.3s1.4-.1 1.9-.3c.5-.2.9-.5 1.3-1l2.2.9.2.1h.2c.4 0 .7-.2.9-.5.2-.3.3-.8.2-1.1l-2.4-6.9v-2.5c.2-4.7-2.1-10.8-4.4-10.8z"/></g><circle fill="#8360A8" cx="15" cy="15.8" r="1.5"/><circle fill="#fff" cx="11" cy="8.5" r="1"/><circle fill="#fff" cx="13" cy="4.5" r="1"/><path fill="#8360A8" d="M15 1c.4 0 .8.1 1.1.3l11.7 7.8c.6.4 1.2 1.5 1.2 2.3v11c0 .8-.6 1.9-1.2 2.3l-11.7 7.8c-.3.2-.7.3-1.1.3s-.8-.1-1.1-.3l-11.7-7.9c-.6-.4-1.2-1.5-1.2-2.3v-11c0-.8.6-1.9 1.2-2.3l11.7-7.8c.3-.1.7-.2 1.1-.2m0-1c-.6 0-1.2.2-1.7.5l-11.6 7.7c-1 .6-1.7 2-1.7 3.1v11c0 1.1.7 2.5 1.7 3.1l11.7 7.8c.5.3 1.1.5 1.7.5s1.2-.2 1.7-.5l11.7-7.8c.9-.6 1.7-2 1.7-3.1v-11c0-1.1-.7-2.5-1.7-3.1l-11.8-7.7c-.5-.3-1.1-.5-1.7-.5z"/><path fill="#fff" d="M28.2 32.8c-.2 0-.6 0-1-.4-.2-.2-.4-.5-.4-1.1v-.9l-.5 1.2c-.3.7-.8 1.1-1.4 1.1-.6 0-1.1-.4-1.4-1.1l-.5-1v.8c0 1-.7 1.4-1.3 1.4s-1.3-.4-1.3-1.4v-5.2c0-1.1.8-1.6 1.5-1.6s1.3.4 1.6 1.3l1.4 3.2 1.4-3.2c.4-.9.9-1.3 1.6-1.3.8 0 1.5.5 1.5 1.6v5.2c.1 1-.6 1.4-1.2 1.4z"/><path fill="#8360A8" d="M28 25.1c.3 0 1 .2 1 1.1v5.2c0 .8-.6.9-.8.9-.3 0-.8-.1-.8-.9v-3.3l-1.5 3.4c-.3.7-.6.8-.9.8-.3 0-.7-.1-.9-.8l-1.4-3.4v3.3c0 .8-.5.9-.8.9s-.8-.1-.8-.9v-5.2c0-1 .7-1.1 1-1.1.3 0 .8.1 1.2 1l1.8 4.3 1.8-4.3c.3-.9.8-1 1.1-1m0-1c-.9 0-1.6.5-2.1 1.6l-.9 1.6-1-1.6c-.5-1.1-1.2-1.6-2.1-1.6-1 0-2 .7-2 2.1v5.2c0 1.2.9 1.9 1.8 1.9.6 0 1.2-.3 1.6-.9.4.6.9.9 1.6.9.7 0 1.3-.3 1.6-1 .1.2.2.3.3.4.3.3.8.5 1.3.5.9 0 1.8-.6 1.8-1.9v-5.2c.1-1.4-.9-2-1.9-2z"/><path fill="#fff" d="M16.5 34v-4.7c0-.8-.7-1.5-1.5-1.5s-1.5.7-1.5 1.5v4.7h3z"/></g></svg>