<svg width="121" height="25" viewBox="0 0 121 25" style='stroke-width: 0px;' xmlns="http://www.w3.org/2000/svg">
<path d="M48.9474 4.64737C50.2702 3.54474 51.8824 2.66093 53.6821 2.0519C55.4817 1.44287 57.4297 1.12187 59.4026 1.10922C61.3812 1.09506 63.3404 1.40401 65.1453 2.0148C66.9501 2.6256 68.5579 3.52373 69.8577 4.64737C71.2415 5.72967 72.3243 7.0093 73.0425 8.41113C73.7606 9.81297 74.0997 11.3087 74.0398 12.8106C74.0652 15.832 72.5711 18.7486 69.8577 20.9739C68.535 22.0765 66.9228 22.9603 65.1231 23.5694C63.3234 24.1784 61.3755 24.4994 59.4026 24.5121C57.424 24.5262 55.4648 24.2173 53.6599 23.6065C51.8551 22.9957 50.2473 22.0975 48.9474 20.9739C47.5636 19.8916 46.4809 18.612 45.7627 17.2101C45.0446 15.8083 44.7055 14.3125 44.7654 12.8106C44.8082 9.79892 46.2932 6.9001 48.9474 4.64737ZM67.0746 6.86565C66.1021 6.0684 64.9143 5.43717 63.591 5.01438C62.2677 4.59159 60.8396 4.38703 59.4026 4.41445C58.0053 4.3546 56.6091 4.54562 55.329 4.97178C54.049 5.39794 52.9216 6.04705 52.0398 6.86565C51.0057 7.64961 50.1942 8.58394 49.655 9.61174C49.1157 10.6395 48.86 11.7393 48.9033 12.8439C48.86 13.9486 49.1157 15.0483 49.655 16.0761C50.1942 17.1039 51.0057 18.0382 52.0398 18.8222C52.9693 19.5976 54.1055 20.2167 55.3742 20.6391C56.6429 21.0615 58.0155 21.2776 59.4026 21.2734C60.8348 21.2757 62.2528 21.0597 63.5713 20.6384C64.8897 20.2172 66.0814 19.5994 67.0746 18.8222C69.0253 17.1712 70.1365 15.0532 70.2112 12.8439C70.2428 10.6038 69.1122 8.44282 67.0599 6.82129L67.0746 6.86565Z" fill="white"/>
<path d="M82.0067 12.6666H86.8809C87.5958 12.6857 88.3079 12.5905 88.9704 12.3873C89.6329 12.1841 90.2308 11.8775 90.7246 11.4877C91.2185 11.0979 91.5971 10.6338 91.8356 10.1258C92.0741 9.61784 92.1671 9.0776 92.1085 8.54062C92.1341 8.0105 92.0181 7.48189 91.7673 6.98619C91.5164 6.49049 91.1359 6.03781 90.6483 5.65502C90.1607 5.27224 89.5759 4.96715 88.9288 4.75788C88.2816 4.54862 87.5852 4.43943 86.8809 4.43681H80.2544V24.2239H76.0723V1.10939H86.8809C93.154 1.10939 96.2905 4.69191 96.2905 8.54062C96.3871 10.2321 95.661 11.8921 94.2486 13.2091C92.8361 14.5262 90.8343 15.4099 88.6185 15.6946L98.0281 24.5011H92.4619L81.6533 14.3192V12.6666H82.0067Z" fill="white"/>
<path d="M110.339 1.10939C105.524 1.10939 99.6778 3.58277 99.6778 8.26334V24.5011H103.934V14.5189L116.715 14.652V24.5122H120.971V8.26334C121 3.58277 115.493 1.10939 110.339 1.10939ZM103.948 8.26334C103.948 5.78996 107.306 4.43681 110.339 4.43681C113.373 4.43681 116.73 5.81214 116.73 8.28552V12.4226L103.948 12.2895V8.26334Z" fill="white"/>
<path d="M10.8528 25C9.42716 25.0044 8.01449 24.7963 6.69611 24.3878C5.37772 23.9792 4.17966 23.3783 3.17092 22.6195C2.16218 21.8607 1.36269 20.9592 0.818483 19.9667C0.27428 18.9743 -0.00388275 17.9105 1.36718e-05 16.8367V0H3.82866V16.8367C3.82866 18.2399 4.5687 19.5856 5.88597 20.5777C7.20324 21.5699 8.98985 22.1273 10.8528 22.1273C12.7157 22.1273 14.5023 21.5699 15.8195 20.5777C17.1368 19.5856 17.8769 18.2399 17.8769 16.8367V4.73602H21.7055V16.8367C21.7094 17.9105 21.4312 18.9743 20.887 19.9667C20.3428 20.9592 19.5433 21.8607 18.5346 22.6195C17.5259 23.3783 16.3278 23.9792 15.0094 24.3878C13.691 24.7963 12.2784 25.0044 10.8528 25Z" fill="white"/>
<path d="M25.5341 25V22.0164C31.925 22.0164 38.7871 17.9237 38.7871 12.4335C38.7871 6.94321 32.6024 2.85049 25.1954 2.85049H6.39088V0H25.2101C34.8259 0 42.8808 5.35714 42.8808 12.5C42.8808 19.6429 34.4725 25 25.5341 25Z" fill="white"/>
</svg>
